<?xml version="1.0" encoding="iso-8859-1"?>
<!-- Generator: Adobe Illustrator 21.0.0, SVG Export Plug-In . SVG Version: 6.00 Build 0)  -->
<svg version="1.1" id="Layer_1" xmlns="http://www.w3.org/2000/svg" xmlns:xlink="http://www.w3.org/1999/xlink" x="0px" y="0px"
	 viewBox="0 0 24 24" enable-background="new 0 0 24 24" xml:space="preserve">
<path id="XMLID_59_" fill="#000000" d="M8.5,10H8v1h0.5C8.7753906,11,9,10.7758789,9,10.5S8.7753906,10,8.5,10z M16,10.5
	c0-0.2758789-0.2246094-0.5-0.5-0.5H15v1h0.5C15.7753906,11,16,10.7758789,16,10.5z M20.5,21H20v-5.3818359
	c0-0.1733398-0.0898438-0.3339844-0.2373047-0.425293c-0.1464844-0.0913086-0.3320313-0.1000977-0.4863281-0.0219727
	l-1.1152344,0.5576172c-0.1376953,0.0688477-0.2363281,0.1977539-0.2666016,0.3491211l-0.4042969,2.0209961
	c-0.0253906,0.1289063-0.1035156,0.2441406-0.2128906,0.3173828l-1.5,1
	c-0.2216797,0.1469727-0.546875,0.0830078-0.6933594-0.1386719c-0.0742188-0.1113281-0.1005859-0.2446289-0.0742188-0.3754883
	s0.1015625-0.2436523,0.2128906-0.3178711l1.1552734-0.7700195c0.1103516-0.0737305,0.1865234-0.1879883,0.2128906-0.3178711
	l0.4189453-2.0942383c0.0302734-0.1523438,0.1279297-0.2797852,0.2666016-0.3491211l2.4472656-1.2236328
	C19.8925781,13.7441406,20,13.5712891,20,13.3818359V8c0-4.4111328-3.5888672-8-8-8
	C9.7158203,0,7.5332031,0.9863281,6.0126953,2.706543C5.8769531,2.859375,5.8486328,3.0786133,5.9394531,3.2612305
	l0.7314453,1.4624023C6.7558594,4.8930664,6.9287109,5,7.1181641,5H8.5c0.2294922,0,0.4287109,0.1557617,0.484375,0.378418
	l0.5,2.0009766c0.0332031,0.1293945,0.0126953,0.2631836-0.0556641,0.3779297
	C9.3603516,7.871582,9.2509766,7.9526367,9.1191406,7.9853516C8.875,8.0444336,8.5820313,7.8857422,8.515625,7.6210938
	L8.2041016,6.378418C8.1484375,6.1557617,7.9482422,6,7.71875,6H6.5C6.3095703,6,6.1376953,5.894043,6.0527344,5.7236328
	L5.5771484,4.7724609C5.4902344,4.6000977,5.3232422,4.4956055,5.1171875,4.4960938
	C4.9228516,4.5009766,4.75,4.6176758,4.671875,4.7954102C4.2255859,5.8129883,4,6.8911133,4,8v13H3.5
	C3.2236328,21,3,21.2236328,3,21.5v2C3,23.7763672,3.2236328,24,3.5,24h17c0.2763672,0,0.5-0.2236328,0.5-0.5v-2
	C21,21.2236328,20.7763672,21,20.5,21z M10,12.5v1c0,0.2763672-0.2236328,0.5-0.5,0.5S9,13.7763672,9,13.5v-1
	C9,12.2241211,8.7753906,12,8.5,12H8v1.5C8,13.7763672,7.7763672,14,7.5,14S7,13.7763672,7,13.5v-4C7,9.2236328,7.2236328,9,7.5,9h1
	C9.3271484,9,10,9.6728516,10,10.5c0,0.3837891-0.1445313,0.734375-0.3828125,1C9.8554688,11.765625,10,12.1162109,10,12.5z
	 M12.5,13.5c0,0.2763672-0.2236328,0.5-0.5,0.5s-0.5-0.2236328-0.5-0.5v-4C11.5,9.2236328,11.7236328,9,12,9s0.5,0.2236328,0.5,0.5
	V13.5z M15,13.5c0,0.2763672-0.2236328,0.5-0.5,0.5S14,13.7763672,14,13.5v-4C14,9.2236328,14.2236328,9,14.5,9h1
	c0.8271484,0,1.5,0.6728516,1.5,1.5S16.3271484,12,15.5,12H15V13.5z"/>
<g>
</g>
<g>
</g>
<g>
</g>
<g>
</g>
<g>
</g>
<g>
</g>
<g>
</g>
<g>
</g>
<g>
</g>
<g>
</g>
<g>
</g>
<g>
</g>
<g>
</g>
<g>
</g>
<g>
</g>
</svg>
