<?xml version="1.0" ?><!DOCTYPE svg  PUBLIC '-//W3C//DTD SVG 1.1//EN'  'http://www.w3.org/Graphics/SVG/1.1/DTD/svg11.dtd'><svg enable-background="new 0 0 512 512" height="512px" id="Layer_1" version="1.1" viewBox="0 0 512 512" width="512px" xml:space="preserve" xmlns="http://www.w3.org/2000/svg" xmlns:xlink="http://www.w3.org/1999/xlink"><path clip-rule="evenodd" d="M395.682,83.279c-0.234-1.265-2.46-2.675-4.154-3.2  c-1.99-0.615-4.351-0.335-6.375-0.435c-0.186-1.035-0.341-1.375-0.29-1.685c0.415-2.54,2.284-5.645-2.655-6.38  c-4.375-0.65-4.905,2.16-5.725,4.935c-0.58,1.97-2.051,3.745-3.125,5.61c-0.926-0.22-1.846-0.44-2.766-0.655  c0.226-3.325,0.68-6.655,0.561-9.97c-0.045-1.305-1.386-2.57-2.141-3.855c-1.665,0.82-4.56,1.45-4.779,2.49  c-0.785,3.755-1.841,7.95-0.636,11.425c2.07,5.975,0.46,11.315-1.395,16.78c-1.17,3.46-6.485,4.865-8.445,2.165  c-2.185-3.015-4.01-2.265-6.66-0.865c-8,4.22-15.989,8.46-24.165,12.41c-5.925,2.87-11.85,6.63-18.285,7.66  c-16.92,2.71-34.114,4.175-51.214,6.045c-1.895,0.205-3.88-0.19-5.83-0.305c-0.04-0.435-0.085-0.865-0.13-1.3  c8.715-2.795,17.372-5.985,26.252-8.29c6.328-1.64,13.275-3.72,18.275-6.14v-2.095l0,0v1.02c5-1.555,8.225-3.235,11.645-5.015  c0.789-2.525,2.311-5.05,4.111-6.995c0.67-0.725,2.138-0.315,2.408,0.555c0.31,0.995,0.671,2,0.831,3.01  c2.21-1.25,4.463-2.54,6.633-3.86c1.315-0.8,2.775-3.545,2.23-4.18c-3.255-3.795-2.438-6.315,2.271-8.415  c0.945-0.42,1.676-1.44,2.181-2.32c3.905-6.745,7.915-13.46,11.405-20.36c0.58-1.155-0.664-3.97-1.979-4.595  c-1.49-0.705-4.32-0.275-6,0.535c-1.516,0.73-2.07,2.785-3.386,3.99c-3.154,2.875-5.18,2.345-6.369-1.48  c-0.605-1.945-1.23-3.885-1.875-5.82c-1.57-4.745,2.909-12.34,8.25-13.965c5.47-1.66,7.076-3.435,4.057-8.75  C323.184,33.1,318,35.225,313,37.569V24.524c-5-0.27-2.096-0.535-2.717-0.795c-2.08,2.32-6.188,4.54-6.413,6.99  c-1.074,11.83-1.307,23.725-2.037,35.585c-0.125,2.02-1.4,4.845-3.15,5.705c-1.815,0.885-5.838,0.645-7.353-0.53  c-3.69-2.86-6.43-2.045-9.81,0.065c-5.09,3.185-10.286,6.065-15.927,8.3c-0.8,2.1-1.676,4.18-2.676,6.21  c-0.72,1.46-2.891,0.18-2.18-1.275c0.619-1.245,1.158-2.51,1.684-3.785c-2.7,0.92-5.505,1.695-8.475,2.265  c-2.235,0.425-4.465,0.87-6.695,1.32c-0.84,1.565-2.245,2.745-4.49,3.16c-2.165,0.395-4.375-0.02-6.495-0.86  c-14.22,3.075-28.365,6.45-42.54,9.69c-5.895,1.35-15.66-1.345-17.915-5.32c-3.21-5.655-1.415-11,5.12-15.195  c2.51-1.61,5.135-3.095,7.535-4.815c1.12-0.81,2.765-2.205,2.565-3.055c-0.915-3.905-1.555-8.225-4.1-11.29  c-1.01-1.22-6.965-0.125-10.18,0.97c-2.13,0.725-3.26,3.435-5.08,5.055c-1.335,1.19-3.06,2.055-4.615,3.06  c-0.65-1.59-1.68-3.145-1.895-4.775c-0.815-6.285,4.385-10.175,8.44-14.37c2.91-3.005,4-5.525,0.505-8.765  c-1.175-1.08-2.36-3.555-1.73-4.44c4.25-5.94-1.195-6.92-5.44-9.02c-3.41-1.69-7.4-3.6-9.24-6.345  c-4.385-6.545-8.64-9.455-17.465-8.51c-0.275,0.03-0.55,0.06-0.825,0.095c-0.405-0.95-1.24-1.72-2.625-1.975  c-2.765-0.515-5.535-0.825-8.265-0.875c-1.32-2.11-3.465-3.375-5.66-4.475c-1.23-0.615-2.725-0.335-3.45,0.905  c-0.66,1.125-0.325,2.835,0.905,3.45c0.425,0.215,0.85,0.42,1.25,0.635c-1.025,0.18-2.04,2.313-3.035,2.598  C118.062,9.512,117.342,11,116.542,11h-1.01c-0.745,0-1.42-1.363-1.885-0.902c-0.175-0.29-0.42-1.347-0.69-1.547  c0.005-0.76-0.485-1.923-1.465-1.923s-1.47,0.563-1.46,1.324c-0.035,0.03-0.308-0.053-0.338-0.028  C109.733,7.138,108,6.214,108,6.214V11c0,0,1.012,0,1.027,0c-0.335,0-0.805,0.042-0.805,0.632c0,0.931,0.435,1.379,1.245,1.809  c-0.53,0.41-1.115,0.637-1.625,1.102c-0.105-0.01-0.24-0.142-0.35-0.142c-1.83,0-2.64,1.527-2.42,2.922  c-0.025,0.035-0.06,0.036-0.085,0.071c-0.17-0.035-0.355-0.062-0.55-0.062c-2.285,0-2.96,2.477-2.035,3.957  c-0.3,0.53-0.575,1.065-0.845,1.61c-0.685,0.275-1.415,0.451-2.17,0.471c-1.945,0.055-1.955,3.085,0,3.025  c0.24-0.005,0.465-0.05,0.7-0.07c-0.78,2.08-1.405,4.23-1.9,6.42c-0.05,0.03-0.095,0.065-0.145,0.095  c-0.14-0.685-0.165-1.43-0.17-1.905c-0.02-1.95-3.05-1.95-3.025,0c0.025,1.935-1.204,4.1,0.096,5.395  c-0.14,0.21-1.943,0.43-1.943,0.66V38c0,0.355,2.014-0.078,2.153,0.233c-0.2,1.52,1.374,3.768,1.284,3.768H93v5h3.252  c-0.025,0-0.05,0.553-0.075,0.933c-0.08-0.021-0.165-0.152-0.245-0.172c-0.035,0-0.07-0.068-0.105-0.073  c-0.15-0.03-0.305-0.076-0.475-0.076c-0.885,0-1.438,0.361-1.838,0.906C93.144,48.958,93,49.5,93,50.104v1.01  c0,1.375,1.063,2.52,2.434,2.52c0.22,0,0.392-0.035,0.592-0.095c0.02,1.11-1.17,2.175-1.05,3.225c-0.22-0.06-1.975-0.1-1.975-0.1  c-6,0-6,6.335,0,6.335c0,0,2.372,0,2.382,0c-0.995,0-0.34,3.387,1.985,3.387c0.33,0,0.62-0.376,0.88-0.466  c1.115,1.03,2.28,1.797,3.495,2.627c0.485,0.46,0.311,0.828,0.921,1.269c0.42,0.305,0.336,0.518,0.336,0.818v1.665  c0,1.375,2.113,2.525,3.493,2.525c0.91,0,2.188-0.505,2.632-1.24c0.72,0.425,1.633,0.84,2.363,1.255  c-0.06,0-0.021-0.015-0.081-0.015c-1.355,0-2.505,1.145-2.48,2.52c0.005,0.665,0.218,1.27,0.528,1.85  c0.61,1.105,1.828,1.625,3.039,1.68c1.375,0.065,2.524-1.195,2.524-2.52c0-0.975-0.54-1.76-1.32-2.18c-0.05-0.1-0.1-0.19-0.166-0.28  c1.31,0.725,2.615,1.455,3.91,2.18c-0.79,1.495-0.08,3.81,2.125,3.81c1.09,0,1.81-0.57,2.165-1.325  c4.48,2.57,9.365,4.79,14.44,5.595c-2.705,6.24-8.695,9.22-14.64,12.12c-1.415-0.02-2.85,0.568-3.87,2.018  c-4.625,6.53-6.985,18.708-5.54,23.708c-0.13,0-0.265,0-0.39,0c-0.04,5-0.075,13.172-0.11,19.767c0.355,0.02,0.705,0.184,0.96,0.543  c3.035,4.351,4.85,9.327,6.185,14.427c0.14,0.545-0.09,1.141-0.58,1.426c-2.755,1.59-5.035,3.351-6.68,5.37  c-0.04,5.89-0.06,11.781-0.1,17.671c1.74,4.19,3.57,8.33,4.33,12.86c0.27,1.59-2.165,2.275-2.435,0.67  c-0.355-2.125-1.075-4.26-1.935-6.4c-0.005,0.71-0.015,1.425-0.015,2.135c2.595,10.325,3.455,22.375-0.235,32.39  c-0.1,14.02-0.195,28.045-0.305,42.07l2.63-2.63c-0.03-1.101-0.085-2.21-0.185-3.33c-0.14-1.62,2.385-1.61,2.525,0  c0.705,8.095-0.05,16.495-4.84,23.34c-0.085,0.12-0.18,0.234-0.27,0.359c-0.055,6.79-0.105,13.585-0.16,20.375  c-0.065,7.311-0.01,9.926,2.245,10.705c-0.035-5.18,1.18-10.205,4.905-14.305c0.635-0.695,1.895-0.345,2.11,0.555  c1.07,4.5,1.825,9.115,1.175,13.71c0.815-0.05,1.685-0.1,2.63-0.145c0.78-0.035,1.575-0.01,2.35-0.11c4.78-0.62,6.62,1.05,6.77,5.25  c0.305,8.9,1.54,17.785,1.71,26.686c0.25,13.015,1.675,26.015,2.67,39.02c1.1-1.37,2.265-2.615,4.045-3.439  c1.015-0.471,2.1,0.284,1.86,1.425c-1.275,6.024-3.11,11.885-5.02,17.725c0.32,10.9-0.12,21.825-2.27,32.785  c-3.335,17.05-4.75,34.365-7.4,51.521c-0.75,4.85-1.2,7.095,0.085,8.505c-0.005-0.38,0.185-0.75,0.64-0.98  c2.16-1.07,4.255-2.045,6.69-2.189c1.225-0.075,1.505,1.375,0.895,2.154c-0.945,1.21-2.01,2.255-3.15,3.186  c0.905,0.234,1.935,0.484,3.115,0.77c-1.975,5.26-3.955,10.521-6.14,16.32c19.65,0,38.45,0.1,57.245-0.14  c2.035-0.03,4.03-2.046,6.04-3.141c-11.035-4.069-22.23-5.939-29.615-15.325c2.9-0.489,4.885-1.119,6.765-1.159  c-0.72-0.976-1.25-2.065-1.375-3.091c-0.085-0.694,0.635-1.255,1.265-1.265c1.21-0.015,1.555,1.535,2.62,1.735  c1.15,0.215,1.12,1.524,0.425,2.14c0.14,0.135,0.275,0.255,0.385,0.345c4.155-0.614,5.235-3.3,5.565-7.564  c0.995-12.896,2.515-25.76,3.885-38.635c-0.075-0.521-0.15-1.035-0.25-1.556c-0.27-0.2-0.47-0.51-0.51-0.93  c-0.18-2.075-1.825-3.155-0.96-5.38c0.44-1.146,2.03-1.255,2.43,0c0.03,0.08,0.05,0.16,0.08,0.245  c1.065-10.695,3.12-21.44,2.655-32.096c-0.135-3.159-0.295-6.314-0.465-9.47c-0.92-0.725-1.81-1.47-2.845-2.05  c-0.42-0.175-0.845-0.37-1.275-0.61c-1.23-0.675,0.241-2.845,1.591-2.305c0.1,0.04,0.917,0.095,0.917,0.135c0,0,0-0.005,0-0.01  c0,0.05-0.447,0.085-0.367,0.13c0.16,0.075,0.022,0.155,0.182,0.24c0.635,0.285,1.098,0.49,1.718,0.645  c-0.06-1.055-0.201-2.109-0.266-3.165c-1.965-1.484-4.128-2.739-6.463-3.609c-0.28-0.105-0.504-0.275-0.644-0.476  c-0.59,0.825-2.277,0.575-2.327-0.739c-0.11-2.851-0.601-4.686,1.374-6.95c0.365-0.425,1.06-0.471,1.529-0.195  c2.13,1.25,4.104,2.64,5.955,4.165c-1.17-17.085-2.635-34.16-3.845-51.245c-0.105-1.515,0.29-3.055,0.585-5.86  c1.94,1.875,2.91,2.601,3.59,3.495c12.625,16.605,25.215,33.23,37.83,49.841c-1-2.775-2.385-5.455-4.29-7.495  c-1.105-1.19,0.675-2.98,1.79-1.785c3.35,3.595,5.35,8.944,6.375,13.675c0.055,0.25,0.035,0.47-0.025,0.67  c0.73,0.96,1.46,1.93,2.19,2.89c4.905,6.445,10.08,12.546,10.82,20.811c1.84,20.61,4.515,41.16,6.515,61.76  c0.245,2.51,0.665,4.43,2.01,5.38c1.785-1.689,3.82-3.104,5.895-4.49c1.23-0.819,2.485,0.971,1.53,1.985  c-0.76,0.805-1.355,1.715-1.85,2.686c2.709-0.716,4.99-0.025,4.5,2.84c-0.79,4.604,2.046,5.045,6.23,4.62  c11.479-1.155,22.96-2.346,34.47-3.25c5.38-0.42,8.175-3.03,7.83-7.136c-0.365-4.375-5.185-2.739-8.02-2.635  c-7.19,0.255-13.605-0.6-18.415-6.255c0.72-0.83,1.295-2.235,2.31-2.535c3.885-1.145,4.87-3.21,4.83-5.64  c-2.755-2.705-5.455-5.47-8.445-7.92c-1.26-1.03,0.535-2.811,1.785-1.785c2.105,1.725,4.065,3.61,6.005,5.515  c-2.005-9.255-3.979-18.515-5.97-27.77c-2.125-3.325-4.46-6.471-7.104-9.385c-0.61-0.535-1.176,0.258-1.7-0.408  c-0.03-0.029-0.056,1.318-0.08,1.318c0.005,0,0.005,0,0.01,0c-0.07,0-0.14-1.568-0.205-1.648c-0.865-1.189,0.995-3.231,1.985-2.241  c0.694,0.71,1.37,1.093,2.03,1.827c0.975,0.811,2.064,1.296,3.17,1.945c-1.351-6.225-2.705-12.533-4.091-18.749  c-0.89-4.005-1.614-8.228-3.145-12.058c-5.35-1.7-9.345-5.355-8.15-12.426c0.016-0.08,0.035-0.16,0.061-0.23  c-3.3-1.31-5.811-3.966-7.125-8.2c-0.48-1.561,1.96-2.226,2.435-0.676c0.806,2.591,2.105,4.381,3.78,5.551  c-5.915-9.855-12.035-19.625-17.975-29.476c-6.55-10.859-13.775-21.484-19.26-32.734c-6.545-13.426-7.9-27.945-9.615-42.37  c-0.345-2.945-0.725-5.891-1.085-8.83c-1.475-0.275-2.965-0.47-4.48-0.515c-1.625-0.045-1.63-2.57,0-2.525  c1.405,0.04,2.79,0.2,4.155,0.43c-0.09-0.75-0.19-1.505-0.28-2.255c-3.945-4.605-6.89-9.98-9.13-15.745  c-0.445-1.15,1.34-2.21,2.115-1.23c1.645,2.09,3.49,3.85,5.535,5.345c-0.64-4.975-1.29-9.94-1.95-14.91  c-1.985-1.295-3.795-2.91-5.37-4.795c-1.04-1.235,0.735-3.03,1.785-1.78c0.955,1.145,1.995,2.18,3.115,3.095  c-1.85-13.815-3.77-27.615-5.74-41.42c-0.745-5.23,1.855-6.89,6.985-7.78c9.62-1.67,19.245-3.34,28.86-5.02  c2.315-3.515,3.1-9.075,5.155-12.185c0.42-0.635,1.42-0.9,1.98-0.255c2.89,3.32,3.845,7.08,2.875,10.695  c12.146-2.135,24.29-4.29,36.415-6.495c-0.21-1.715-1.908-4.91,0.252-3.385c0.6,0.42-1.134,1.1-1.134,1.63c0,0.01,0,0.015,0,0.03  c0,0.21,1.613,0.425,1.644,0.635c0.04,0.22,0.872,0.435,0.911,0.655c3.51-0.625,7.464-1.2,10.994-1.86  c0.84-2.98,2.02-5.895,3.374-8.71c0.46-0.96,2.204-0.75,2.404,0.3c0.46,2.45,0.718,4.81,0.613,7.14  c3.17-0.75,6.291-1.645,9.221-2.81c2.87-1.14,5.72-2.325,8.555-3.535c0.565-1.24,1.091-2.5,1.461-3.82  c0.311-1.08,1.745-1.22,2.315-0.305c0.41,0.655,0.77,1.33,1.1,2.015c3.68-1.62,7.33-3.295,10.97-4.975  c0.94-3.48,0.392-6.85,2.002-10.155c0.57-1.165,0.437-0.56,0.437,0.64v6.6c6-1.05,6.403-2.105,8.653-3.16  c0.101-0.185,1.187-0.355,1.397-0.495c2.279-1.52,5.298-2.945,7.287-4.85c0.91-0.87,2.43,0.01,2.41,0.97  c0.489-0.225,1.1-0.46,1.595-0.685c8.119-3.72,8.167-3.75,7.362-11.635c6.775,0.845,9.833-2.08,10.653-7.675  c0.779-5.315,2.302-10.56,3.651-15.8c0.885-3.44,1.636-6.915,7.017-7.685C394.236,87.239,395.927,84.564,395.682,83.279z   M105.332,38.515c0.055,0.835,0.12,1.665,0.215,2.5c0.045,0.4,0.12,0.8,0.185,1.205c-0.415,0.39-0.66,0.895-0.74,1.43  c-0.085-0.03-0.18-0.055-0.28-0.075C104.872,41.875,105.072,40.189,105.332,38.515z M104.002,56.399  c-0.255-2.625,0.185-5.485,0.34-7.945c0.04-0.625,0.085-1.255,0.13-1.885c0.2-0.005,0.375-0.04,0.53-0.1  c-0.28,0.46-0.49,0.995-0.57,1.615c-0.39,2.955-0.195,5.82,0.37,8.625C104.537,56.614,104.267,56.509,104.002,56.399z   M104.857,59.679c0.235-0.065,0.435-0.19,0.59-0.36c0.195,0.675,0.405,1.345,0.63,2.01  C105.592,60.834,105.177,60.285,104.857,59.679z" fill-rule="evenodd"/></svg>